<svg width="551" height="407" viewBox="0 0 551 407" fill="none" xmlns="http://www.w3.org/2000/svg">
<g id="laptop">
<g id="layer1">
<g id="notebook">
<g id="base">
<g id="inferior">
<path id="path6502" d="M0.293457 256.455V267.597L241.831 406.867V395.726L0.293457 256.455Z" fill="#262626"/>
<path id="path6508" d="M241.832 395.726V406.867L396.416 317.734V306.593L241.832 395.726" fill="#2F2F2F"/>
</g>
<g id="pads">
<path id="path6500" d="M145.216 172.893L0.293457 256.455L241.832 395.726L386.754 312.164L145.216 172.893Z" fill="#484848"/>
<path id="path6512" d="M145.216 184.035L367.431 312.164L290.139 356.73L67.9243 228.601L145.216 184.035Z" fill="#606060"/>
<path id="path6516" d="M145.216 284.309L116.231 301.022L164.539 328.876L193.524 312.164L145.216 284.309Z" fill="#606060"/>
</g>
</g>
<g id="screen-big">
<g id="screen-frame">
<path id="path6492" d="M386.754 312.164V145.039L338.447 117.185L290.139 89.3307L241.832 61.4766L193.524 33.6225L145.216 5.76842V172.893L386.754 312.164Z" fill="#333333"/>
<path id="path6496" d="M145.216 5.76843L154.878 0.197609L396.416 139.468L386.754 145.039L145.216 5.76843Z" fill="#484848"/>
<path id="path6498" d="M386.754 145.039L396.416 139.468V306.593L386.754 312.164V145.039Z" fill="#2F2F2F"/>
</g>
<path id="screen" d="M377.092 295.451L154.877 167.322V22.4809L377.092 150.61V295.451Z" fill="#414C4F"/>
</g>
</g>
<path id="shadow" opacity="0.1" d="M396.416 139.468L551 228.601L396.416 317.734V139.468Z" fill="black"/>
</g>
</g>
</svg>
