<svg width="191" height="344" viewBox="0 0 191 344" fill="none" xmlns="http://www.w3.org/2000/svg">
<path opacity="0.1" d="M112.162 235.026L191 278.226L112.162 343.187V235.026Z" fill="black"/>
<path d="M110.024 338.885L20.9692 287.439C13.4268 283.08 7.30664 271.394 7.30664 261.326V12.7841C7.31477 2.72434 13.4268 -1.90299 20.9692 2.43971L110.024 53.9015C117.566 58.2523 123.678 69.9467 123.678 80.0064V328.548C123.678 338.616 117.566 343.244 110.024 338.885Z" fill="#484848"/>
<path d="M111.544 343.366L118.607 339.796L111.837 328.191L111.544 343.366Z" fill="#484848"/>
<path d="M5.9248 4.93634L12.4188 1.52887L11.1103 11.1007L5.9248 4.93634Z" fill="#484848"/>
<path d="M104.343 341.723L15.2878 290.326C7.7453 285.967 1.6333 274.273 1.6333 264.213V15.6223C1.6333 5.56256 7.7453 0.935233 15.2878 5.29419L104.343 56.7397C111.885 61.0986 117.997 72.7849 117.997 82.8528V331.395C117.997 341.463 111.885 346.082 104.343 341.723Z" fill="#333333"/>
<path d="M117.038 83.4871V332.021C117.038 342.097 110.926 346.708 103.384 342.357L68.4348 322.189L57.5843 315.911L14.3127 290.92C6.77021 286.553 0.658203 274.867 0.658203 264.799V16.2648C0.658203 6.18875 6.77021 1.56955 14.3127 5.92038L103.4 57.3659C110.942 61.733 117.038 73.4111 117.038 83.4871Z" fill="#333333"/>
<path d="M110.625 80.9661V323.027C110.625 329.126 106.358 331.606 101.075 328.548L73.2302 312.463L70.7919 311.048L69.9791 310.568L63.9646 307.095L46.547 297.044L39.3297 292.872L36.42 291.188L16.6616 279.754C11.3868 276.705 7.10352 269.288 7.10352 263.188V21.1442C7.10352 15.0449 11.3868 12.5808 16.6616 15.6223L51.4236 35.7093V35.7825C51.4236 40.5237 54.7641 46.2977 58.8686 48.6723C62.973 51.047 66.3135 49.1278 66.3135 44.3784C66.3135 44.3784 66.3135 44.2971 66.3135 44.2646L101.084 64.3597C106.358 67.4338 110.625 74.8586 110.625 80.9661Z" fill="#414C4F"/>
<path d="M60.8686 46.2078C61.9726 45.57 61.9743 43.5048 60.8723 41.5949C59.7703 39.6851 57.9819 38.6539 56.8779 39.2917C55.7739 39.9295 55.7723 41.9947 56.8742 43.9045C57.9762 45.8144 59.7646 46.8456 60.8686 46.2078Z" fill="#414C4F"/>
<path opacity="0.1" d="M58.8683 44.1101C58.528 43.8831 58.2456 43.5795 58.0438 43.2236C57.8419 42.8677 57.7263 42.4694 57.7061 42.0607C57.7061 41.3044 58.2425 41.0035 58.8927 41.3776C59.2366 41.6028 59.5231 41.9055 59.7291 42.2613C59.9352 42.6172 60.0551 43.0164 60.0793 43.4269C60.055 44.1833 59.5185 44.4923 58.8683 44.1101Z" fill="#333333"/>
<path d="M120.663 116.187C119.94 116.61 119.347 116.187 119.347 115.195V104.623C119.355 104.131 119.479 103.647 119.708 103.211C119.936 102.774 120.264 102.398 120.663 102.11V102.11C121.387 101.696 121.98 102.11 121.98 103.111V113.683C121.97 114.174 121.846 114.656 121.617 115.091C121.389 115.525 121.062 115.901 120.663 116.187V116.187Z" fill="#2F2F2F"/>
<path d="M120.663 133.55C119.94 133.973 119.347 133.55 119.347 132.558V121.986C119.355 121.493 119.479 121.01 119.708 120.573C119.936 120.137 120.264 119.76 120.663 119.473V119.473C121.387 119.058 121.98 119.473 121.98 120.473V131.045C121.97 131.536 121.846 132.018 121.617 132.453C121.389 132.888 121.062 133.263 120.663 133.55Z" fill="#2F2F2F"/>
</svg>
